M48
;FILE_FORMAT=2:4
INCH
;TYPE=PLATED
T01C0.012
T03C0.020
T04C0.028
T05C0.031
T06C0.034
T07C0.039
T08C0.118
;TYPE=NON_PLATED
T02C0.016
%
T01
X+196550Y+023000
X+197350Y+037100
X+202200Y+014550
X+205450Y+024500
X+206200Y+036300
X+206000Y+040100
X+209550Y+031350
X+208950Y+036700
X+212598Y+031496
X+210400Y+038250
X+213400Y+019400
X+218500Y+019450
X+216300Y+022000
X+216400Y+025200
X+217500Y+028750
X+219650Y+021950
X+220100Y+021450
X+219650Y+026150
X+227100Y+017500
X+226250Y+022400
X+230700Y+034950
X+230600Y+040850
X+231450Y+038650
X+197050Y+036050
X+200050Y+036100
X+208350Y+023750
X+208650Y+039100
X+210300Y+023850
X+215250Y+024050
X+214150Y+024000
X+220550Y+021050
X+221550Y+020800
X+226100Y+021200
X+226950Y+021000
X+229400Y+021050
X+197900Y+039950
X+228000Y+017000
X+228200Y+021500
T02
X+234886Y+032220
Y+034780
X+233114Y+032220
Y+034780
X+234886Y+028220
Y+030780
X+233114Y+028220
Y+030780
X+234886Y+044220
Y+046780
X+233114Y+044220
Y+046780
X+234886Y+040220
Y+042780
X+233114Y+040220
Y+042780
X+186047Y+024000
Y+023000
Y+025000
X+189000Y+012500
Y+014500
X+191000Y+012500
Y+014500
X+186000Y+012500
Y+013500
X+198000Y+025000
Y+026000
X+201000Y+025000
Y+026000
X+198000Y+022000
Y+023000
X+201000Y+022000
Y+023000
X+198000Y+027000
X+201000
X+198000Y+024000
Y+021000
X+201000Y+024000
Y+021000
X+212000Y+027500
X+210110
X+215000Y+037500
X+216000
X+215000Y+040500
X+216000
X+214000Y+037500
Y+040500
X+233047Y+018500
Y+017500
Y+015500
Y+014500
Y+012500
X+234047Y+018500
Y+017500
Y+015500
Y+014500
Y+012500
X+233047Y+019500
Y+016500
Y+013500
X+234047Y+019500
Y+016500
Y+013500
X+234886Y+036220
Y+038780
X+233114Y+036220
Y+038780
X+229000Y+020000
Y+018000
X+230378Y+019016
T03
X+186000Y+031000
Y+032000
X+186024Y+046244
Y+047244
X+200500Y+016000
X+198500
X+222000Y+030000
X+220031
X+219047
X+221016
X+209500Y+048500
X+211469
X+212453
X+210484
X+195866Y+048228
Y+044291
X+195000Y+012500
Y+014500
T04
X+189000Y+045500
Y+047500
X+191000Y+045500
Y+047500
T05
X+189000Y+030000
Y+034921
X+208500Y+042000
Y+046921
X+189500Y+041500
Y+036579
X+188500Y+022000
X+193421
X+196500Y+018500
X+191579
X+192000Y+030000
Y+034921
X+195000Y+030000
Y+034921
X+207000Y+032000
Y+036921
X+188500Y+024000
X+193421
X+192000Y+036500
Y+041421
T06
X+186000Y+040000
Y+041000
T07
X+200500Y+012000
X+199500
X+198500
X+211000Y+045000
X+212000
X+213000
T08
X+187008Y+043307
Y+017717
X+227362Y+011811
Y+048228
T00
M30
